<svg version="1.1" viewBox="0.0 0.0 960.0 960.0" fill="none" stroke="none" stroke-linecap="square" stroke-miterlimit="10" xmlns:xlink="http://www.w3.org/1999/xlink" xmlns="http://www.w3.org/2000/svg"><clipPath id="g6f8958b8c4_0_0.0"><path d="m0 0l960.0 0l0 960.0l-960.0 0l0 -960.0z" clip-rule="nonzero"/></clipPath><g clip-path="url(#g6f8958b8c4_0_0.0)"><path fill="#ffffff" d="m0 0l960.0 0l0 960.0l-960.0 0z" fill-rule="evenodd"/><path fill="#000000" d="m93.79174 291.8762l386.17822 -289.32892l386.17822 289.32892l-147.50696 468.144l-477.34253 0z" fill-rule="evenodd"/><path fill="#000000" fill-opacity="0.0" d="m154.08298 742.8724l651.7766 0l0 151.25928l-651.7766 0z" fill-rule="evenodd"/><path fill="#000000" d="m310.40488 795.2911q-5.21875 0 -9.234375 2.03125q-4.015625 2.015625 -6.734375 5.796875q-2.71875 3.78125 -4.125 9.203125q-1.40625 5.40625 -1.40625 12.15625q0 6.84375 1.25 12.1875q1.265625 5.328125 3.875 9.0q2.609375 3.65625 6.671875 5.5625q4.078125 1.890625 9.703125 1.890625q5.21875 0 10.453125 -1.171875q5.25 -1.171875 11.40625 -3.328125l0 15.234375q-2.8125 1.171875 -5.578125 2.0q-2.75 0.8125 -5.625 1.328125q-2.859375 0.53125 -5.890625 0.796875q-3.015625 0.265625 -6.46875 0.265625q-9.90625 0 -17.171875 -3.15625q-7.265625 -3.171875 -12.015625 -8.90625q-4.734375 -5.75 -7.03125 -13.828125q-2.28125 -8.09375 -2.28125 -18.0q0 -9.71875 2.640625 -17.828125q2.640625 -8.125 7.734375 -13.984375q5.09375 -5.859375 12.59375 -9.109375q7.5 -3.25 17.234375 -3.25q6.390625 0 12.796875 1.609375q6.421875 1.609375 12.28125 4.421875l-5.859375 14.765625q-4.8125 -2.28125 -9.671875 -3.984375q-4.859375 -1.703125 -9.546875 -1.703125zm110.6875 28.828125q0 9.90625 -2.328125 18.046875q-2.3125 8.140625 -7.0625 13.953125q-4.734375 5.796875 -11.96875 8.96875q-7.234375 3.15625 -17.078125 3.15625q-9.84375 0 -17.09375 -3.15625q-7.234375 -3.171875 -11.953125 -8.96875q-4.703125 -5.8125 -7.03125 -13.984375q-2.3125 -8.171875 -2.3125 -18.125q0 -9.96875 2.3125 -18.078125q2.328125 -8.125 7.0625 -13.859375q4.75 -5.75 11.984375 -8.875q7.234375 -3.140625 17.140625 -3.140625q9.84375 0 17.046875 3.140625q7.21875 3.125 11.921875 8.90625q4.71875 5.765625 7.03125 13.890625q2.328125 8.109375 2.328125 18.125zm-58.125 0q0 6.734375 1.171875 12.109375q1.171875 5.359375 3.59375 9.078125q2.4375 3.71875 6.125 5.71875q3.6875 1.984375 8.796875 1.984375q5.203125 0 8.921875 -1.984375q3.734375 -2.0 6.09375 -5.71875q2.375 -3.71875 3.515625 -9.078125q1.15625 -5.375 1.15625 -12.109375q0 -6.734375 -1.15625 -12.09375q-1.140625 -5.359375 -3.515625 -9.109375q-2.359375 -3.75 -6.0625 -5.734375q-3.6875 -2.0 -8.84375 -2.0q-5.09375 0 -8.84375 2.0q-3.75 1.984375 -6.1875 5.734375q-2.421875 3.75 -3.59375 9.109375q-1.171875 5.359375 -1.171875 12.09375zm142.07812 -0.703125q0 10.84375 -2.953125 19.015625q-2.953125 8.171875 -8.5625 13.65625q-5.59375 5.46875 -13.703125 8.234375q-8.109375 2.75 -18.484375 2.75l-22.5625 0l0 -85.671875l25.078125 0q9.4375 0 17.015625 2.703125q7.59375 2.6875 12.984375 8.0q5.390625 5.296875 8.28125 13.15625q2.90625 7.84375 2.90625 18.15625zm-18.390625 0.46875q0 -7.140625 -1.4375 -12.328125q-1.4375 -5.1875 -4.171875 -8.578125q-2.71875 -3.40625 -6.671875 -5.046875q-3.953125 -1.640625 -9.046875 -1.640625l-8.375 0l0 55.78125l6.671875 0q11.484375 0 17.25 -7.03125q5.78125 -7.03125 5.78125 -21.15625zm109.16409 0.234375q0 9.90625 -2.328125 18.046875q-2.3125 8.140625 -7.0625 13.953125q-4.734375 5.796875 -11.96875 8.96875q-7.234375 3.15625 -17.078125 3.15625q-9.84375 0 -17.09375 -3.15625q-7.234375 -3.171875 -11.953125 -8.96875q-4.703125 -5.8125 -7.03125 -13.984375q-2.3125 -8.171875 -2.3125 -18.125q0 -9.96875 2.3125 -18.078125q2.328125 -8.125 7.0625 -13.859375q4.75 -5.75 11.984375 -8.875q7.234375 -3.140625 17.140625 -3.140625q9.84375 0 17.046875 3.140625q7.21875 3.125 11.921875 8.90625q4.71875 5.765625 7.03125 13.890625q2.328125 8.109375 2.328125 18.125zm-58.125 0q0 6.734375 1.171875 12.109375q1.171875 5.359375 3.59375 9.078125q2.4375 3.71875 6.125 5.71875q3.6875 1.984375 8.796875 1.984375q5.203125 0 8.921875 -1.984375q3.734375 -2.0 6.09375 -5.71875q2.375 -3.71875 3.515625 -9.078125q1.15625 -5.375 1.15625 -12.109375q0 -6.734375 -1.15625 -12.09375q-1.140625 -5.359375 -3.515625 -9.109375q-2.359375 -3.75 -6.0625 -5.734375q-3.6875 -2.0 -8.84375 -2.0q-5.09375 0 -8.84375 2.0q-3.75 1.984375 -6.1875 5.734375q-2.421875 3.75 -3.59375 9.109375q-1.171875 5.359375 -1.171875 12.09375zm148.17188 42.953125l-23.015625 0l-33.703125 -64.8125l-0.515625 0q0.34375 4.515625 0.578125 8.96875q0.234375 3.8125 0.375 8.0q0.15625 4.1875 0.15625 7.53125l0 40.3125l-16.234375 0l0 -85.671875l22.90625 0l33.640625 64.171875l0.34375 0q-0.171875 -4.453125 -0.40625 -8.796875q-0.0625 -1.875 -0.15625 -3.828125q-0.078125 -1.96875 -0.140625 -3.921875q-0.046875 -1.96875 -0.078125 -3.78125q-0.03125 -1.828125 -0.03125 -3.296875l0 -40.546875l16.28125 0l0 85.671875z" fill-rule="nonzero"/><path fill="#000000" fill-opacity="0.0" d="m158.55551 173.2045l681.2285 0l0 524.0625l-681.2285 0z" fill-rule="evenodd"/><path fill="#ffffff" d="m454.79044 329.37012q-17.671875 0 -31.28125 6.859375q-13.59375 6.84375 -22.828125 19.65625q-9.234375 12.796875 -14.0 31.171875q-4.765625 18.359375 -4.765625 41.1875q0 23.234375 4.265625 41.3125q4.28125 18.0625 13.109375 30.46875q8.84375 12.40625 22.640625 18.859375q13.796875 6.453125 32.859375 6.453125q17.671875 0 35.4375 -3.96875q17.78125 -3.96875 38.62497 -11.3125l0 51.625q-9.53125 3.96875 -18.87497 6.75q-9.328125 2.78125 -19.0625 4.5625q-9.71875 1.796875 -19.953125 2.6875q-10.21875 0.890625 -21.9375 0.890625q-33.546875 0 -58.171875 -10.71875q-24.625 -10.71875 -40.71875 -30.171875q-16.078125 -19.46875 -23.828125 -46.859375q-7.734375 -27.40625 -7.734375 -60.96875q0 -32.96875 8.9375 -60.46875q8.9375 -27.5 26.203125 -47.34375q17.28125 -19.859375 42.6875 -30.875q25.421875 -11.03125 58.390625 -11.03125q21.640625 0 43.375 5.46875q21.74997 5.453125 41.609344 14.984375l-19.859375 50.03125q-16.28122 -7.734375 -32.765594 -13.484375q-16.46875 -5.765625 -32.359375 -5.765625z" fill-rule="nonzero"/><path fill="#ffffff" d="m614.30524 339.08887l-48.578125 0l0 -28.984375l48.578125 0l0 -48.859375l28.984375 0l0 48.859375l48.453125 0l0 28.984375l-48.453125 0l0 48.1875l-28.984375 0l0 -48.1875z" fill-rule="nonzero"/><path fill="#000000" fill-opacity="0.0" d="m-0.02983311 897.4445l960.0019 0l0 61.278137l-960.0019 0z" fill-rule="evenodd"/><path fill="#000000" d="m223.67033 915.0789l-11.953125 0q-1.09375 0 -1.0625 0.96875q0 1.015625 1.09375 1.015625l11.6875 0q0.8125 0 1.28125 0.390625q0.515625 0.390625 0.515625 1.21875l0 1.71875q0 4.40625 -3.640625 6.875q-3.59375 2.375 -10.390625 2.65625q-0.578125 0 -0.9375 0.34375q-0.265625 0.28125 -0.265625 0.703125q0 0.390625 0.34375 0.671875q0.359375 0.265625 0.9375 0.265625q7.703125 -0.34375 11.953125 -3.4375q4.21875 -3.046875 4.21875 -8.046875l0 -2.0625q0 -1.484375 -1.09375 -2.390625q-1.046875 -0.890625 -2.6875 -0.890625zm14.796875 18.15625l0 -17.890625q0 -0.578125 -0.390625 -0.890625q-0.3125 -0.28125 -0.78125 -0.28125q-0.5 0 -0.8125 0.28125q-0.359375 0.3125 -0.359375 0.890625l0 3.796875l-6.71875 0q-0.578125 0 -0.9375 0.265625q-0.3125 0.3125 -0.3125 0.703125q0 0.390625 0.3125 0.703125q0.359375 0.3125 0.9375 0.3125l6.71875 0l0 5.78125l-6.71875 0q-0.578125 0 -0.9375 0.3125q-0.3125 0.28125 -0.3125 0.703125q0 0.390625 0.3125 0.671875q0.359375 0.34375 0.9375 0.34375l6.71875 0l0 4.296875q0 0.515625 0.359375 0.828125q0.3125 0.265625 0.8125 0.265625q0.46875 0 0.78125 -0.265625q0.390625 -0.3125 0.390625 -0.828125zm-12.578125 1.015625q-6.359375 0 -9.796875 1.875q-3.046875 1.71875 -3.046875 4.5q0 2.65625 3.046875 4.375q3.4375 1.921875 9.796875 1.921875q6.328125 0 9.765625 -1.921875q3.09375 -1.6875 3.09375 -4.375q0 -2.78125 -3.09375 -4.5q-3.390625 -1.875 -9.765625 -1.875zm0 1.953125q5.28125 0 8.046875 1.296875q2.546875 1.171875 2.546875 3.125q0 1.828125 -2.546875 3.0q-2.8125 1.296875 -8.046875 1.296875q-5.265625 0 -8.078125 -1.296875q-2.5 -1.171875 -2.5 -3.0q0 -1.953125 2.5 -3.125q2.765625 -1.296875 8.078125 -1.296875zm50.85936 -16.59375l0 2.21875q0 0.78125 -0.421875 1.140625q-0.390625 0.34375 -1.296875 0.34375l-18.4375 0q-0.81248474 0 -1.2031097 -0.390625q-0.359375 -0.34375 -0.359375 -1.046875l0 -2.265625l21.718735 0zm-20.421875 5.703125l19.25 0q1.484375 0 2.5 -0.984375q1.015625 -0.9375 1.015625 -2.296875l0 -6.6875q0 -0.546875 -0.390625 -0.859375q-0.3125 -0.265625 -0.78125 -0.265625q-0.5 0 -0.8125 0.3125q-0.359375 0.3125 -0.359375 0.859375l0 2.21875l-21.718735 0l0 -2.140625q0 -0.59375 -0.390625 -0.9375q-0.3125 -0.28125 -0.78125 -0.28125q-0.5 0 -0.8125 0.28125q-0.359375 0.34375 -0.359375 0.9375l0 6.59375q0 1.40625 1.015625 2.3125q1.015625 0.9375 2.6249847 0.9375zm24.84375 3.4375l-30.437485 0q-1.125 0 -1.171875 0.9375q-0.078125 0.96875 0.984375 0.96875l14.218735 0l0 3.5625q0 0.546875 0.34375 0.859375q0.3125 0.265625 0.78125 0.265625q0.4375 0 0.75 -0.3125q0.390625 -0.34375 0.390625 -0.9375l0 -3.4375l14.21875 0q0.96875 0 0.96875 -0.96875q-0.03125 -0.9375 -1.046875 -0.9375zm-5.9375 7.609375l-21.92186 0q-1.09375 0 -1.046875 0.984375q0 1.015625 1.046875 1.015625l21.79686 0q0.90625 0 1.296875 0.34375q0.34375 0.3125 0.34375 1.0625l0 5.859375q0 0.59375 0.359375 0.9375q0.3125 0.3125 0.8125 0.3125q0.46875 0 0.78125 -0.3125q0.390625 -0.34375 0.390625 -0.9375l0 -5.9375q0 -1.640625 -1.015625 -2.5q-0.96875 -0.828125 -2.84375 -0.828125zm28.78125 -21.015625l-8.90625 0q-1.796875 0 -2.8125 1.015625q-0.96875 1.015625 -0.96875 2.78125l0 20.625q0 1.75 1.09375 2.6875q1.125 0.984375 3.359375 0.984375q3.28125 0 5.9375 -0.4375q3.515625 -0.546875 6.25 -1.828125q0.5 -0.28125 0.703125 -0.703125q0.1875 -0.390625 0.03125 -0.78125q-0.109375 -0.390625 -0.5 -0.546875q-0.4375 -0.15625 -0.984375 0.109375q-2.421875 1.015625 -5.390625 1.609375q-3.0 0.578125 -6.046875 0.578125q-1.375 0 -1.796875 -0.5q-0.359375 -0.4375 -0.359375 -1.640625l0 -20.28125q0 -0.859375 0.359375 -1.25q0.34375 -0.421875 1.171875 -0.421875l8.859375 0q1.140625 0 1.171875 -1.015625q0 -0.984375 -1.171875 -0.984375zm13.25 -0.1875l0 14.53125l-5.546875 0l0 -14.53125q0 -1.015625 -1.171875 -1.015625q-1.140625 0 -1.140625 1.015625l0 30.515625q0 0.546875 0.359375 0.890625q0.3125 0.28125 0.78125 0.28125q0.46875 0 0.78125 -0.28125q0.390625 -0.34375 0.390625 -0.890625l0 -14.078125l5.546875 0l0 14.15625q0 0.5 0.34375 0.8125q0.3125 0.28125 0.78125 0.28125q0.4375 0 0.75 -0.3125q0.390625 -0.3125 0.390625 -0.828125l0 -30.546875q0 -1.015625 -1.140625 -1.015625q-1.125 0 -1.125 1.015625zm28.28125 -0.546875l-10.234375 0q-1.09375 0 -1.09375 0.96875q0 1.015625 1.09375 1.015625l10.3125 0q1.046875 0 1.015625 -1.015625q0 -0.96875 -1.09375 -0.96875zm4.140625 4.53125l-18.59375 0q-1.09375 0 -1.09375 0.96875q0 1.015625 1.09375 1.015625l18.671875 0q0.5 0 0.8125 -0.3125q0.28125 -0.3125 0.28125 -0.703125q0 -0.390625 -0.3125 -0.703125q-0.3125 -0.265625 -0.859375 -0.265625zm-9.140625 3.75q-4.375 0 -6.921875 1.640625q-2.296875 1.484375 -2.296875 3.671875q0 2.0625 2.296875 3.59375q2.578125 1.671875 6.921875 1.671875q4.25 0 6.828125 -1.671875q2.3125 -1.53125 2.3125 -3.59375q0 -2.1875 -2.3125 -3.671875q-2.578125 -1.640625 -6.828125 -1.640625zm0 1.953125q3.203125 0 5.109375 1.015625q1.71875 0.96875 1.71875 2.34375q0 1.328125 -1.71875 2.21875q-1.875 1.015625 -5.109375 1.015625q-3.28125 0 -5.203125 -1.015625q-1.71875 -0.890625 -1.71875 -2.21875q0 -1.375 1.71875 -2.34375q1.953125 -1.015625 5.203125 -1.015625zm16.796875 -1.25l0 -8.40625q0 -1.046875 -1.171875 -1.046875q-1.140625 0 -1.140625 1.046875l0 15.671875q0 0.546875 0.359375 0.859375q0.3125 0.3125 0.78125 0.3125q0.46875 0 0.78125 -0.3125q0.390625 -0.3125 0.390625 -0.859375l0 -5.28125l4.25 0q1.015625 0 1.015625 -1.015625q0 -0.96875 -1.015625 -0.96875l-4.25 0zm-3.828125 12.765625l-20.203125 0q-1.09375 0 -1.046875 0.984375q0 1.015625 1.046875 1.015625l20.15625 0q0.828125 0 1.21875 0.34375q0.34375 0.3125 0.34375 1.0625l0 5.859375q0 0.546875 0.359375 0.90625q0.3125 0.3125 0.78125 0.3125q0.46875 0 0.78125 -0.28125q0.390625 -0.34375 0.390625 -0.890625l0 -6.109375q0 -1.5625 -0.984375 -2.375q-1.015625 -0.828125 -2.84375 -0.828125zm41.171875 -21.171875l-21.40625 0q-1.0625 0 -1.0625 0.984375q0 1.015625 1.0625 1.015625l21.09375 0q1.09375 0 1.71875 0.5q0.65625 0.515625 0.65625 1.484375l0 8.59375q0 2.8125 -0.8125 5.28125q-0.703125 2.03125 -1.765625 3.359375q-0.703125 0.890625 0.203125 1.59375q0.859375 0.75 1.640625 -0.03125q1.25 -1.53125 2.109375 -4.296875q0.96875 -2.9375 0.96875 -5.828125l0 -8.78125q0 -1.84375 -1.203125 -2.890625q-1.21875 -0.984375 -3.203125 -0.984375zm-16.875 12.46875l0 14.484375l-7.078125 0q-0.546875 0 -0.859375 0.28125q-0.265625 0.3125 -0.3125 0.703125q-0.03125 0.390625 0.203125 0.703125q0.234375 0.3125 0.65625 0.3125l30.671875 0q0.5 0 0.8125 -0.3125q0.3125 -0.3125 0.3125 -0.703125q0 -0.390625 -0.3125 -0.703125q-0.3125 -0.28125 -0.859375 -0.28125l-11.828125 0l0 -14.40625q0 -1.0625 -1.171875 -1.0625q-1.140625 0 -1.140625 1.015625l0 14.453125l-6.75 0l0 -14.328125q0 -0.546875 -0.390625 -0.859375q-0.3125 -0.3125 -0.78125 -0.3125q-0.515625 -0.046875 -0.828125 0.234375q-0.34375 0.265625 -0.34375 0.78125z" fill-rule="nonzero"/><path fill="#000000" d="m432.51797 915.2664q-4.5 0 -7.15625 2.5q-2.34375 2.265625 -2.34375 5.59375q0 3.28125 2.34375 5.5q2.625 2.5 7.15625 2.5q4.40625 0 7.03125 -2.5q2.375 -2.265625 2.375 -5.5q0 -3.328125 -2.375 -5.59375q-2.65625 -2.5 -7.03125 -2.5zm0 1.953125q3.390625 0 5.34375 1.875q1.71875 1.71875 1.71875 4.265625q0 2.53125 -1.71875 4.21875q-1.953125 1.875 -5.34375 1.875q-3.515625 0 -5.46875 -1.875q-1.71875 -1.6875 -1.71875 -4.21875q0 -2.546875 1.71875 -4.265625q1.984375 -1.875 5.46875 -1.875zm17.0625 28.40625l0 -30.4375q0 -0.5 -0.390625 -0.78125q-0.3125 -0.265625 -0.78125 -0.265625q-0.5 0 -0.8125 0.265625q-0.359375 0.3125 -0.359375 0.828125l0 30.390625q0 0.546875 0.359375 0.90625q0.3125 0.3125 0.8125 0.3125q0.46875 0 0.78125 -0.3125q0.390625 -0.359375 0.390625 -0.90625zm-28.046875 -5.703125q-0.578125 0 -0.9375 0.265625q-0.3125 0.28125 -0.3125 0.703125q0 0.390625 0.3125 0.671875q0.359375 0.3125 0.9375 0.3125q7.546875 0 12.8125 -0.359375q6.5625 -0.421875 11.09375 -1.40625q0.515625 -0.15625 0.78125 -0.5q0.234375 -0.359375 0.15625 -0.703125q-0.109375 -0.390625 -0.46875 -0.59375q-0.46875 -0.1875 -1.09375 -0.03125q-4.328125 0.859375 -11.015625 1.28125q-5.421875 0.359375 -12.265625 0.359375zm55.859375 -24.578125l-14.21875 0q-1.046875 0 -1.046875 0.984375q0 1.015625 1.015625 1.015625l14.09375 0q0.90625 0 1.453125 0.421875q0.546875 0.4375 0.546875 1.21875l0 7.765625q0 3.09375 -0.46875 5.28125q-0.515625 2.375 -1.609375 4.0625q-0.34375 0.5 -0.1875 0.96875q0.15625 0.390625 0.625 0.625q0.421875 0.234375 0.890625 0.125q0.515625 -0.125 0.828125 -0.59375q1.046875 -1.953125 1.640625 -4.71875q0.546875 -2.65625 0.546875 -5.78125l0 -7.890625q0 -1.5625 -1.0625 -2.5q-1.09375 -0.984375 -3.046875 -0.984375zm-8.15625 12.109375l0 14.453125q-1.71875 0.046875 -4.0625 0.078125q-2.078125 0.046875 -3.71875 0.046875q-0.546875 0 -0.890625 0.3125q-0.28125 0.265625 -0.28125 0.703125q0 0.390625 0.359375 0.65625q0.34375 0.359375 1.015625 0.359375q7.453125 0 12.765625 -0.671875q5.625 -0.65625 9.5 -2.140625q0.421875 -0.234375 0.578125 -0.625q0.15625 -0.4375 0 -0.828125q-0.15625 -0.390625 -0.546875 -0.546875q-0.421875 -0.15625 -1.015625 0.078125q-2.421875 0.984375 -5.703125 1.609375q-2.84375 0.578125 -5.859375 0.8125l0 -14.296875q0 -0.546875 -0.34375 -0.859375q-0.3125 -0.3125 -0.75 -0.3125q-0.421875 0 -0.734375 0.3125q-0.3125 0.3125 -0.3125 0.859375zm19.21875 1.953125l0 -14.25q0 -1.0625 -1.171875 -1.0625q-1.140625 0 -1.140625 1.0625l0 30.546875q0 0.546875 0.359375 0.859375q0.3125 0.3125 0.78125 0.3125q0.46875 0 0.78125 -0.3125q0.390625 -0.3125 0.390625 -0.8125l0 -14.421875l4.328125 0q0.984375 0 0.9375 -0.984375q0 -0.9375 -1.015625 -0.9375l-4.25 0zm26.671906 -14.0625l-8.9062805 0q-1.796875 0 -2.8125 1.015625q-0.96875 1.015625 -0.96875 2.78125l0 20.625q0 1.75 1.09375 2.6875q1.125 0.984375 3.359375 0.984375q3.28125 0 5.9375305 -0.4375q3.515625 -0.546875 6.25 -1.828125q0.5 -0.28125 0.703125 -0.703125q0.1875 -0.390625 0.03125 -0.78125q-0.109375 -0.390625 -0.5 -0.546875q-0.4375 -0.15625 -0.984375 0.109375q-2.421875 1.015625 -5.390625 1.609375q-3.0000305 0.578125 -6.0469055 0.578125q-1.375 0 -1.796875 -0.5q-0.359375 -0.4375 -0.359375 -1.640625l0 -20.28125q0 -0.859375 0.359375 -1.25q0.34375 -0.421875 1.171875 -0.421875l8.8594055 0q1.140625 0 1.171875 -1.015625q0 -0.984375 -1.171875 -0.984375zm13.25 -0.1875l0 14.53125l-5.546875 0l0 -14.53125q0 -1.015625 -1.171875 -1.015625q-1.140625 0 -1.140625 1.015625l0 30.515625q0 0.546875 0.359375 0.890625q0.3125 0.28125 0.78125 0.28125q0.46875 0 0.78125 -0.28125q0.390625 -0.34375 0.390625 -0.890625l0 -14.078125l5.546875 0l0 14.15625q0 0.5 0.34375 0.8125q0.3125 0.28125 0.78125 0.28125q0.4375 0 0.75 -0.3125q0.390625 -0.3125 0.390625 -0.828125l0 -30.546875q0 -1.015625 -1.140625 -1.015625q-1.125 0 -1.125 1.015625zm28.28125 -0.546875l-10.234375 0q-1.09375 0 -1.09375 0.96875q0 1.015625 1.09375 1.015625l10.3125 0q1.046875 0 1.015625 -1.015625q0 -0.96875 -1.09375 -0.96875zm4.140625 4.53125l-18.59375 0q-1.09375 0 -1.09375 0.96875q0 1.015625 1.09375 1.015625l18.671875 0q0.5 0 0.8125 -0.3125q0.28125 -0.3125 0.28125 -0.703125q0 -0.390625 -0.3125 -0.703125q-0.3125 -0.265625 -0.859375 -0.265625zm-9.140625 3.75q-4.375 0 -6.921875 1.640625q-2.296875 1.484375 -2.296875 3.671875q0 2.0625 2.296875 3.59375q2.578125 1.671875 6.921875 1.671875q4.25 0 6.828125 -1.671875q2.3125 -1.53125 2.3125 -3.59375q0 -2.1875 -2.3125 -3.671875q-2.578125 -1.640625 -6.828125 -1.640625zm0 1.953125q3.203125 0 5.109375 1.015625q1.71875 0.96875 1.71875 2.34375q0 1.328125 -1.71875 2.21875q-1.875 1.015625 -5.109375 1.015625q-3.28125 0 -5.203125 -1.015625q-1.71875 -0.890625 -1.71875 -2.21875q0 -1.375 1.71875 -2.34375q1.953125 -1.015625 5.203125 -1.015625zm16.796875 -1.25l0 -8.40625q0 -1.046875 -1.171875 -1.046875q-1.140625 0 -1.140625 1.046875l0 15.671875q0 0.546875 0.359375 0.859375q0.3125 0.3125 0.78125 0.3125q0.46875 0 0.78125 -0.3125q0.390625 -0.3125 0.390625 -0.859375l0 -5.28125l4.25 0q1.015625 0 1.015625 -1.015625q0 -0.96875 -1.015625 -0.96875l-4.25 0zm-3.828125 12.765625l-20.203125 0q-1.09375 0 -1.046875 0.984375q0 1.015625 1.046875 1.015625l20.15625 0q0.828125 0 1.21875 0.34375q0.34375 0.3125 0.34375 1.0625l0 5.859375q0 0.546875 0.359375 0.90625q0.3125 0.3125 0.78125 0.3125q0.46875 0 0.78125 -0.28125q0.390625 -0.34375 0.390625 -0.890625l0 -6.109375q0 -1.5625 -0.984375 -2.375q-1.015625 -0.828125 -2.84375 -0.828125z" fill-rule="nonzero"/><path fill="#000000" d="m591.85004 944.84454l0 -28.640625l3.78125 0l0 28.640625l-3.78125 0zm17.753906 0l0 -25.25l-9.4375 0l0 -3.390625l22.703125 0l0 3.390625l-9.484375 0l0 25.25l-3.78125 0z" fill-rule="nonzero"/><path fill="#000000" d="m652.92816 915.8133q0 6.0625 -4.1875 10.359375q-3.59375 3.703125 -8.4375 4.6875q-0.625 0.109375 -0.890625 0.5q-0.28125 0.3125 -0.234375 0.75q0.078125 0.390625 0.421875 0.625q0.390625 0.234375 0.984375 0.15625q4.71875 -0.9375 8.59375 -4.5q3.703125 -3.3125 4.875 -7.265625q1.25 3.90625 4.890625 7.265625q3.828125 3.515625 8.359375 4.453125q0.65625 0.125 1.125 -0.109375q0.390625 -0.234375 0.46875 -0.671875q0.125 -0.421875 -0.15625 -0.78125q-0.3125 -0.390625 -0.890625 -0.5q-5.125 -1.0625 -8.640625 -4.6875q-4.015625 -4.1875 -4.015625 -10.203125q0 -0.625 -0.390625 -1.015625q-0.3125 -0.3125 -0.75 -0.3125q-0.46875 0 -0.78125 0.3125q-0.34375 0.359375 -0.34375 0.9375zm0 18.25l0 8.078125l-14.03125 0q-0.546875 0 -0.859375 0.28125q-0.265625 0.3125 -0.3125 0.703125q-0.03125 0.390625 0.203125 0.703125q0.234375 0.3125 0.65625 0.3125l30.671875 0q0.5 0 0.8125 -0.3125q0.3125 -0.3125 0.3125 -0.703125q0 -0.390625 -0.3125 -0.703125q-0.3125 -0.28125 -0.859375 -0.28125l-14.015625 0l0 -7.921875q0 -0.546875 -0.390625 -0.859375q-0.3125 -0.3125 -0.75 -0.3125q-0.46875 -0.046875 -0.78125 0.234375q-0.34375 0.265625 -0.34375 0.78125zm51.984375 -15.546875l0 10.265625q0 0.625 -0.421875 0.90625q-0.359375 0.265625 -1.25 0.265625l-18.28125 0q-1.015625 0 -1.40625 -0.3125q-0.359375 -0.265625 -0.359375 -1.046875l0 -10.0q0 -0.75 0.3125 -1.0625q0.390625 -0.3125 1.328125 -0.3125l18.328125 0q0.9375 0 1.328125 0.28125q0.421875 0.3125 0.421875 1.015625zm-1.359375 -3.328125l-19.1875 0q-1.75 0 -2.6875 0.859375q-0.828125 0.859375 -0.828125 2.3125l0 10.421875q0 1.484375 0.9375 2.3125q0.9375 0.8125 2.625 0.8125l19.296875 0q1.671875 0 2.578125 -0.734375q0.96875 -0.75 0.96875 -2.1875l0 -10.625q0 -1.484375 -0.9375 -2.3125q-0.96875 -0.859375 -2.765625 -0.859375zm-10.625 18.875l0 8.078125l-14.03125 0q-0.546875 0 -0.859375 0.28125q-0.265625 0.3125 -0.3125 0.703125q-0.03125 0.390625 0.203125 0.703125q0.234375 0.3125 0.65625 0.3125l30.671875 0q0.5 0 0.8125 -0.3125q0.3125 -0.3125 0.3125 -0.703125q0 -0.390625 -0.3125 -0.703125q-0.3125 -0.28125 -0.859375 -0.28125l-14.015625 0l0 -7.921875q0 -0.546875 -0.390625 -0.859375q-0.3125 -0.3125 -0.75 -0.3125q-0.46875 -0.046875 -0.78125 0.234375q-0.34375 0.265625 -0.34375 0.78125zm35.078125 -19.21875q-4.265625 0 -6.765625 2.453125q-2.21875 2.265625 -2.21875 5.625q0 3.28125 2.21875 5.515625q2.5 2.453125 6.765625 2.453125q4.21875 0 6.640625 -2.453125q2.21875 -2.234375 2.21875 -5.515625q0 -3.359375 -2.21875 -5.625q-2.46875 -2.453125 -6.640625 -2.453125zm0 2.03125q3.15625 0 4.953125 1.828125q1.640625 1.640625 1.640625 4.21875q0 2.5 -1.640625 4.1875q-1.796875 1.875 -4.953125 1.875q-3.25 0 -5.046875 -1.875q-1.59375 -1.6875 -1.59375 -4.1875q0 -2.578125 1.59375 -4.21875q1.796875 -1.828125 5.046875 -1.828125zm18.625 13.90625l0 -15.59375q0 -0.5 -0.390625 -0.78125q-0.3125 -0.265625 -0.78125 -0.265625q-0.5 0 -0.8125 0.265625q-0.359375 0.3125 -0.359375 0.828125l0 15.546875q0 0.546875 0.359375 0.890625q0.3125 0.3125 0.8125 0.3125q0.46875 0 0.78125 -0.3125q0.390625 -0.34375 0.390625 -0.890625zm-2.34375 7.21875l0 4.65625q0 0.65625 -0.421875 0.96875q-0.390625 0.28125 -1.296875 0.28125l-16.90625 0q-1.015625 0 -1.40625 -0.3125q-0.359375 -0.3125 -0.359375 -1.09375l0 -4.421875q0 -0.734375 0.3125 -1.046875q0.390625 -0.359375 1.328125 -0.359375l17.0 0q0.9375 0 1.328125 0.28125q0.421875 0.3125 0.421875 1.046875zm-1.203125 -3.3125l-18.359375 0q-1.453125 0 -2.3125 0.8125q-0.859375 0.828125 -0.859375 2.078125l0 5.109375q0 1.5625 0.828125 2.359375q0.890625 0.859375 2.84375 0.859375l18.015625 0q1.5625 0 2.453125 -0.75q0.9375 -0.78125 0.9375 -2.265625l0 -5.46875q0 -1.25 -0.9375 -2.0q-0.96875 -0.734375 -2.609375 -0.734375z" fill-rule="nonzero"/></g></svg>